<?xml version="1.0" encoding="UTF-8" standalone="no"?>
<svg
   xmlns:dc="http://purl.org/dc/elements/1.1/"
   xmlns:cc="http://creativecommons.org/ns#"
   xmlns:rdf="http://www.w3.org/1999/02/22-rdf-syntax-ns#"
   xmlns:svg="http://www.w3.org/2000/svg"
   xmlns="http://www.w3.org/2000/svg"
   xmlns:sodipodi="http://sodipodi.sourceforge.net/DTD/sodipodi-0.dtd"
   xmlns:inkscape="http://www.inkscape.org/namespaces/inkscape"
   sodipodi:docname="рисунок.svg"
   inkscape:version="1.0 (4035a4fb49, 2020-05-01)"
   width="284.16251mm"
   height="25.13542mm"
   viewBox="0 0 284.16251 25.13542"
   version="1.1"
   id="svg8">
  <defs
     id="defs2" />
  <sodipodi:namedview
     inkscape:window-maximized="1"
     inkscape:window-y="-8"
     inkscape:window-x="-8"
     inkscape:window-height="1017"
     inkscape:window-width="1920"
     showgrid="false"
     inkscape:document-rotation="0"
     inkscape:current-layer="layer1"
     inkscape:document-units="mm"
     inkscape:cy="29.016573"
     inkscape:cx="555.74231"
     inkscape:zoom="0.98994949"
     inkscape:pageshadow="2"
     inkscape:pageopacity="0.0"
     borderopacity="1.0"
     bordercolor="#666666"
     pagecolor="#ffffff"
     id="base" />
  <metadata
     id="metadata5">
    <rdf:RDF>
      <cc:Work
         rdf:about="">
        <dc:format>image/svg+xml</dc:format>
        <dc:type
           rdf:resource="http://purl.org/dc/dcmitype/StillImage" />
        <dc:title></dc:title>
      </cc:Work>
    </rdf:RDF>
  </metadata>
  <g
     transform="translate(-40.481247,-188.13765)"
     id="layer1"
     inkscape:groupmode="layer"
     inkscape:label="Слой 1">
    <path
       id="path117"
       d="M 40.481247,200.70536 V 188.13765 H 182.5625 324.64376 v 12.56771 12.56771 H 182.5625 40.481247 Z m 204.189433,6.94815 4.56682,-4.56123 v -1.96959 -1.96959 l -4.4216,-4.44939 -4.4216,-4.44939 h -2.124 -2.124 l -4.43461,4.42885 -4.4346,4.42885 v 2.12975 2.12975 l 4.44939,4.42161 4.44939,4.4216 h 1.964 1.96399 z m -11.9068,-0.93208 -3.89929,-3.90581 v -1.72001 -1.72001 l 3.77362,-3.76689 3.77362,-3.76689 h 1.71979 1.71979 l 3.8993,3.9058 3.89929,3.90581 v 1.45494 1.45493 l -4.01833,4.03197 -4.01833,4.03196 h -1.47508 -1.47508 z m -2.04721,-5.75149 c 0,-0.88194 -0.10289,-1.19062 -0.39687,-1.19062 -0.29399,0 -0.39688,0.30868 -0.39688,1.19062 0,0.88195 0.10289,1.19063 0.39688,1.19063 0.29398,0 0.39687,-0.30868 0.39687,-1.19063 z m 14.81667,0.44482 c 0.65484,-0.0991 1.19062,-0.2993 1.19062,-0.44482 0,-0.4328 -2.01159,-0.61438 -9.06198,-0.81797 l -6.68073,-0.19291 v 1.01088 1.01088 l 6.68073,-0.19291 c 3.6744,-0.1061 7.21651,-0.27402 7.87136,-0.37315 z m -65.73841,10.12731 c 3.24348,-0.83934 5.59091,-2.8039 7.09993,-5.94192 0.76469,-1.59018 0.827,-1.92917 0.82674,-4.49792 -2.3e-4,-2.32043 -0.10539,-3.03966 -0.63831,-4.36562 -0.8162,-2.03082 -3.2241,-4.49287 -5.44683,-5.56931 -1.45403,-0.70417 -1.8322,-0.76931 -4.49792,-0.77475 -2.71326,-0.006 -3.02784,0.0497 -4.64382,0.81547 -4.38528,2.07806 -6.92118,6.84748 -6.12122,11.51251 1.10117,6.4215 7.20155,10.43111 13.42143,8.82154 z m -10.19701,-5.30202 c 0,-0.18301 3.39047,-12.77811 3.58336,-13.31162 0.0733,-0.20273 0.20252,-0.29935 0.28716,-0.2147 0.21029,0.21029 -3.39128,13.68017 -3.6578,13.68017 -0.117,0 -0.21272,-0.0692 -0.21272,-0.15385 z m 10.00515,-4.03455 c -1.40941,-0.38851 -2.56014,-0.82545 -2.5572,-0.97098 0.006,-0.29423 2.86836,-5.42395 3.02659,-5.42395 0.16307,0 6.04407,1.6125 6.08508,1.66846 0.0207,0.0282 -0.68596,1.27172 -1.57033,2.76331 -0.97053,1.63691 -1.76921,2.70357 -2.01476,2.69077 -0.22376,-0.0117 -1.55997,-0.33909 -2.96938,-0.72761 z m -5.58019,-2.38503 c -0.93677,-0.25612 -1.48213,-0.53774 -1.40923,-0.72772 0.0654,-0.17045 0.44261,-1.51445 0.83824,-2.98667 0.39562,-1.47222 0.82786,-2.67676 0.96054,-2.67676 0.32257,0 5.08005,1.34055 5.20727,1.4673 0.055,0.0547 -0.57686,1.2948 -1.40402,2.7557 -1.67603,2.9601 -1.54464,2.89216 -4.1928,2.16815 z m -110.977621,10.33607 1.513072,-1.52903 v -7.52528 -7.52528 l -1.513072,-1.52902 -1.513071,-1.52903 h -7.557191 -7.55719 l -1.513071,1.52903 -1.513072,1.52902 v 7.52528 7.52528 l 1.513072,1.52903 1.513071,1.52903 h 7.55719 7.557191 z m -9.384454,-0.76838 c 0.190996,-0.0764 0.419199,-0.067 0.507118,0.0209 0.08792,0.0879 -0.06835,0.15045 -0.347266,0.13896 -0.308224,-0.0127 -0.370919,-0.0754 -0.159852,-0.15985 z m -1.537891,-0.2652 c -0.218281,-0.0768 -0.826569,-0.60461 -1.35175,-1.17299 -0.713457,-0.77214 -0.923063,-1.19983 -0.829051,-1.69162 0.08521,-0.44572 0.0072,-0.6582 -0.241729,-0.6582 -0.202154,0 -0.598793,-0.42939 -0.88142,-0.9542 -0.282628,-0.5248 -0.774237,-1.05318 -1.092466,-1.17417 -0.946974,-0.36004 -1.163501,-3.24095 -0.280719,-3.73498 0.244091,-0.1366 0.443802,-0.42368 0.443802,-0.63796 0,-0.21428 0.474722,-1.33378 1.054938,-2.48777 0.953486,-1.89639 1.143099,-2.11471 1.971678,-2.27015 0.544303,-0.10211 1.085612,-0.42971 1.332411,-0.80638 0.582224,-0.88858 2.557494,-0.91597 3.168299,-0.0439 0.227471,0.32476 0.8593,0.71437 1.404066,0.86581 0.881723,0.24511 1.094979,0.4875 1.942138,2.20749 0.52341,1.06269 1.042904,1.91624 1.154432,1.89678 0.448032,-0.0782 1.003016,1.53785 1.013591,2.9514 0.01353,1.80922 -0.398088,2.52567 -2.047336,3.56349 -0.980759,0.61717 -1.177384,0.86745 -1.065363,1.35611 0.174148,0.75967 -1.875979,3.05824 -2.224589,2.49417 -0.147337,-0.23839 -0.728064,-0.31707 -1.907524,-0.25844 -1.525271,0.0758 -1.629219,0.11541 -1.034241,0.39382 0.65329,0.3057 0.239672,0.4321 -0.529167,0.16171 z m 4.56137,-2.02182 c 0.523788,-0.65421 0.991223,-2.10907 0.993405,-3.0919 9.52e-4,-0.43397 0.208213,-0.75657 0.596788,-0.92893 0.475624,-0.21099 0.582178,-0.44968 0.529982,-1.18722 -0.179809,-2.54079 -0.799604,-2.90752 -4.913773,-2.90752 -3.153168,0 -4.345188,0.31476 -4.697082,1.24031 -0.41802,1.09948 -0.294375,2.56915 0.255776,3.0402 0.275806,0.23615 0.586051,0.94722 0.689434,1.58016 0.298158,1.82539 1.036719,2.81943 2.194694,2.95384 1.938214,0.22499 3.857966,-0.0834 4.350776,-0.69894 z m -7.204796,-4.5408 c -0.502008,-0.60488 -0.101189,-2.17493 0.687098,-2.69144 0.520004,-0.34072 1.309584,-0.43333 3.625656,-0.42527 3.842755,0.0134 4.324233,0.20395 4.564576,1.80667 0.137791,0.91886 0.09184,1.29233 -0.180204,1.46463 -0.504691,0.31966 -3.339497,0.29948 -3.540158,-0.0252 -0.08994,-0.14552 -0.447125,-0.26458 -0.79375,-0.26458 -0.346626,0 -0.703813,0.11906 -0.79375,0.26458 -0.266846,0.43177 -3.191743,0.32574 -3.569468,-0.12939 z m 10.906894,-5.69144 c 0,-0.50932 0.05445,-0.71768 0.121,-0.46302 0.06655,0.25466 0.06655,0.67138 0,0.92604 -0.06655,0.25466 -0.121,0.0463 -0.121,-0.46302 z m 23.486533,13.66864 v -1.14802 l -2.248958,-0.33459 -2.248959,-0.33459 v -1.1919 c 0,-1.12019 0.03755,-1.18248 0.624031,-1.03528 2.913211,0.73116 6.234647,0.68629 7.178437,-0.097 0.460817,-0.38244 0.526277,-1.65247 0.123925,-2.40427 -0.15163,-0.28333 -1.550614,-1.15683 -3.108854,-1.94111 -1.55824,-0.78429 -3.190351,-1.80263 -3.626914,-2.26297 -0.734406,-0.77442 -0.79375,-0.98276 -0.79375,-2.78663 0,-1.7878 0.06326,-2.01566 0.762167,-2.74516 0.464005,-0.48432 1.266172,-0.9247 2.050521,-1.12572 l 1.288354,-0.3302 v -1.1406 -1.14061 h -3.381719 -3.381722 l -1.51307,1.52903 -1.513072,1.52902 v 7.52528 7.52528 l 1.513072,1.52903 1.51307,1.52903 h 3.381722 3.381719 z m 9.864011,-0.381 1.513073,-1.52903 v -7.52528 -7.52528 l -1.513073,-1.52902 -1.51307,-1.52903 h -3.264641 -3.264643 l 0.08136,1.1222 c 0.05472,0.75472 0.21132,1.13927 0.478234,1.17434 0.218282,0.0287 1.081485,0.12757 1.91823,0.21976 l 1.521354,0.16761 v 1.19989 c 0,0.98592 -0.0747,1.17123 -0.418904,1.03915 -0.2304,-0.0884 -1.391259,-0.23492 -2.579688,-0.32557 -2.643598,-0.20164 -4.021466,0.24162 -4.308716,1.38612 -0.309409,1.23278 0.357156,1.92882 3.367482,3.51636 1.543875,0.81419 3.010241,1.65027 3.25859,1.85795 0.809514,0.67696 1.210402,1.81514 1.210402,3.43651 0,1.39684 -0.09869,1.70384 -0.807127,2.5107 -0.620686,0.70692 -1.14018,0.98841 -2.248958,1.21859 L 85.725,209.34183 v 1.17187 1.17187 h 3.249427 3.24943 z m 214.841674,0 1.51307,-1.52903 v -7.52528 -7.52528 l -1.51307,-1.52902 -1.51307,-1.52903 h -7.55719 -7.55719 l -1.51307,1.52903 -1.51307,1.52902 v 7.52528 7.52528 l 1.51307,1.52903 1.51307,1.52903 h 7.55719 7.55719 z m -9.38445,-0.76838 c 0.19099,-0.0764 0.4192,-0.067 0.50712,0.0209 0.0879,0.0879 -0.0684,0.15045 -0.34727,0.13896 -0.30823,-0.0127 -0.37092,-0.0754 -0.15985,-0.15985 z m -1.73633,-0.27057 c -0.32742,-0.0631 -0.59722,-0.19568 -0.59954,-0.2947 -0.002,-0.099 -0.34344,-0.56471 -0.75803,-1.03487 -0.53795,-0.61005 -0.71731,-1.04569 -0.62639,-1.52135 0.0882,-0.4614 0.0108,-0.66652 -0.25158,-0.66652 -0.20845,0 -0.64667,-0.47625 -0.97382,-1.05833 -0.32714,-0.58209 -0.75876,-1.05834 -0.95914,-1.05834 -0.55036,0 -0.72308,-0.4456 -0.82182,-2.12025 -0.0789,-1.33786 -0.0256,-1.5424 0.43273,-1.66227 0.28748,-0.0752 0.52628,-0.35619 0.53067,-0.62448 0.004,-0.26828 0.45087,-1.3781 0.99219,-2.46625 0.87756,-1.76408 1.09153,-2.0083 1.97469,-2.2538 0.54477,-0.15144 1.16707,-0.52744 1.38289,-0.83558 0.77883,-1.11193 3.08224,-0.97765 3.45649,0.2015 0.0874,0.2754 0.39685,0.50072 0.68765,0.50072 1.02783,0 1.61958,0.6003 2.52632,2.56283 0.50428,1.09144 0.9857,1.91561 1.06984,1.83148 0.35581,-0.3558 0.953,1.39899 0.95205,2.79753 0,1.81097 -0.41545,2.52841 -2.05588,3.56068 -0.98076,0.61717 -1.17738,0.86745 -1.06536,1.35611 0.16283,0.71032 -1.45372,2.52979 -2.52052,2.83692 -0.64249,0.18497 -0.64629,0.1785 -0.1323,-0.2254 0.49554,-0.3894 0.41566,-0.41636 -1.25677,-0.42424 -1.87966,-0.009 -2.17327,0.11753 -1.19062,0.51251 0.61474,0.2471 0.24842,0.28683 -0.79375,0.0861 z m 4.94966,-2.30857 c 0.30858,-0.49929 0.63136,-1.50147 0.7173,-2.22706 0.11686,-0.9867 0.281,-1.35189 0.65115,-1.44868 0.39416,-0.10308 0.49491,-0.38039 0.49491,-1.36221 0,-2.33989 -0.75944,-2.78634 -4.73584,-2.78403 -3.36647,0.002 -4.39208,0.29612 -4.76532,1.36678 -0.42889,1.23031 -0.35064,2.27369 0.21276,2.8371 0.27565,0.27565 0.58589,1.01979 0.68943,1.65364 0.10354,0.63386 0.4235,1.53942 0.71102,2.01236 l 0.52277,0.8599 h 2.47039 2.47038 z m -2.05829,-4.02949 c -0.53394,-0.40595 -1.5399,-0.45708 -1.76689,-0.0898 -0.26685,0.43177 -3.19175,0.32574 -3.56947,-0.12939 -0.33326,-0.40155 -0.20495,-1.78802 0.22873,-2.47164 0.37272,-0.58753 3.93454,-0.95179 6.12615,-0.62651 1.05501,0.15659 2.03421,0.40071 2.17599,0.54249 0.14179,0.14178 0.31867,0.79793 0.39308,1.45812 0.12395,1.09968 0.0826,1.21146 -0.49292,1.33305 -1.45049,0.30643 -2.67869,0.29996 -3.09467,-0.0163 z m 5.57588,-5.77834 c 0.003,-0.58208 0.0571,-0.78905 0.12041,-0.45993 0.0633,0.32911 0.0609,0.80536 -0.005,1.05833 -0.0662,0.25296 -0.11801,-0.0163 -0.11507,-0.5984 z m -152.80161,11.44755 2.98071,-2.97225 v -7.4788 -7.47879 H 146.05 135.99583 v 7.47034 7.47034 l 2.97225,2.9807 2.97225,2.9807 h 4.10121 4.10122 z m -12.22137,0.60954 c -0.0809,-0.13086 -0.021,-0.27997 0.13318,-0.33134 0.46746,-0.15583 1.27177,-3.65596 0.84011,-3.65596 -0.14626,0 -0.34626,-0.32006 -0.44445,-0.71126 -0.0982,-0.39119 -0.34752,-0.83768 -0.55408,-0.99219 -0.79267,-0.5929 -0.46454,-5.35878 0.3891,-5.65142 0.12648,-0.0434 0.16955,-0.30983 0.0957,-0.59217 -0.0738,-0.28233 -0.059,-0.91453 0.033,-1.40489 0.14565,-0.77638 0.25206,-0.87534 0.82378,-0.76605 0.61069,0.11674 0.65653,0.0514 0.65653,-0.93536 0,-1.12434 0.27696,-1.38207 1.48515,-1.38207 0.35647,0 0.71666,-0.1786 0.80042,-0.39688 0.17696,-0.46115 2.21235,-0.56645 2.21235,-0.11446 0,0.16201 0.2256,0.21081 0.52916,0.11446 0.29105,-0.0924 0.52917,-0.0489 0.52917,0.0966 0,0.14552 0.23813,0.34017 0.52917,0.43254 0.41439,0.13152 0.52916,0.40032 0.52916,1.2393 0,1.00181 0.0432,1.06309 0.66544,0.94414 0.77788,-0.1487 1.05248,0.49796 0.82482,1.94246 -0.0764,0.48469 -0.0447,1.0048 0.0704,1.1558 0.30656,0.40214 0.88672,2.669 0.88672,3.4647 0,0.85243 -0.46603,1.39674 -0.52505,0.61325 -0.0474,-0.62867 -0.25851,-0.92522 -0.49232,-0.69142 -0.27083,0.27084 0.18121,1.79937 0.47791,1.616 0.15256,-0.0943 0.22442,-0.0656 0.15969,0.0638 -0.0647,0.1294 -0.27041,0.62222 -0.45708,1.09517 -0.18667,0.47294 -0.46032,0.85989 -0.60812,0.85989 -0.23287,0 -0.16087,1.04486 0.13672,1.98438 0.37117,1.17181 0.51979,1.45521 0.76316,1.45521 0.17861,0 0.16522,0.13728 -0.0372,0.38114 -0.48775,0.58771 -1.90409,-0.132 -1.66591,-0.84653 0.0602,-0.1806 -0.027,-0.32836 -0.19381,-0.32836 -0.16679,0 -0.26898,-0.20836 -0.22709,-0.46302 0.0419,-0.25467 -0.0196,-0.61573 -0.1366,-0.80237 -0.42233,-0.67355 -0.63315,-1.83037 -0.40717,-2.23418 0.15698,-0.2805 0.0129,-0.8022 -0.45055,-1.6314 -0.38834,-0.69483 -0.55111,-1.21903 -0.37851,-1.21903 0.16655,0 0.22923,-0.11907 0.1393,-0.26459 -0.24967,-0.40396 -1.11467,-0.315 -1.28631,0.13229 -0.20062,0.52281 -0.87462,0.5072 -1.17367,-0.0272 -0.36245,-0.64765 -1.26263,-0.35496 -1.15929,0.37695 0.0467,0.33072 -0.14071,0.98368 -0.41646,1.45103 -0.2935,0.49746 -0.47332,1.23267 -0.43374,1.77343 0.0372,0.50803 -0.10778,1.19494 -0.32215,1.52648 -0.21436,0.33153 -0.31825,0.71848 -0.23085,0.85989 0.0874,0.14141 0.0644,0.40594 -0.0511,0.58784 -0.1155,0.1819 -0.2221,0.39026 -0.2369,0.46302 -0.17334,0.85237 -1.44628,1.41994 -1.82182,0.8123 z m 0.64999,-6.76542 c 0,-0.21828 0.009,-0.4832 0.0199,-0.5887 0.0109,-0.1055 -0.10815,-0.23449 -0.26459,-0.28663 -0.15643,-0.0522 -0.28442,0.21277 -0.28442,0.5887 0,0.37592 0.11906,0.6835 0.26458,0.6835 0.14552,0 0.26458,-0.17859 0.26458,-0.39687 z m 0.79826,-1.47096 c 0.73329,-1.60066 1.00431,-1.9781 1.46889,-2.04573 0.29132,-0.0424 0.65977,-0.28543 0.81878,-0.54005 0.22983,-0.368 0.16019,-0.61284 -0.33957,-1.19384 l -0.62869,-0.73089 -0.66196,0.71426 c -0.36407,0.39285 -0.66567,0.90524 -0.67021,1.13866 -0.005,0.23341 -0.2971,0.89457 -0.65013,1.46925 -0.48457,0.78881 -0.57008,1.13139 -0.34891,1.39788 0.34385,0.41431 0.76605,0.32688 1.0118,-0.20954 z m 8.65059,0.11191 c 0.0491,-0.14721 -0.19444,-0.68563 -0.54112,-1.19651 -0.34669,-0.51087 -0.71194,-1.36381 -0.81167,-1.89541 -0.10375,-0.55305 -0.40284,-1.08511 -0.69911,-1.24367 -0.31691,-0.1696 -0.51778,-0.17818 -0.51778,-0.0221 0,0.14025 -0.19976,0.45475 -0.44391,0.69891 -0.5225,0.52249 -0.20486,1.25916 0.60456,1.40214 0.64175,0.11336 1.16227,0.78365 1.16227,1.49668 0,0.94356 0.98536,1.54418 1.24676,0.75997 z m -26.86868,5.1101 2.89648,-4.9802 -2.86308,-4.94168 -2.86307,-4.94167 -5.95624,-0.071 -5.95623,-0.071 -2.63828,4.5432 c -1.45106,2.49876 -2.74472,4.76073 -2.87479,5.02659 -0.18354,0.37515 0.4089,1.61027 2.64583,5.51598 l 2.88234,5.0326 5.91528,-0.0663 5.91529,-0.0663 z m -9.44324,2.06978 c 0.0817,-0.7276 0.22322,-2.12659 0.3146,-3.10885 l 0.16613,-1.78594 h -2.22779 -2.22778 l 0.94448,-5.75469 0.94448,-5.75469 2.9651,-0.0748 c 1.63081,-0.0411 2.9651,-10e-4 2.9651,0.0887 0,0.0899 -0.8446,1.96904 -1.8769,4.17586 -1.03229,2.20681 -1.938,4.16122 -2.01268,4.34312 -0.10055,0.24491 0.31781,0.33073 1.61232,0.33073 0.96145,0 1.7481,0.0929 1.7481,0.2065 0,0.11358 -0.77932,2.10788 -1.73181,4.43177 -1.48549,3.62428 -1.7107,4.0371 -1.58335,2.90235 z m 101.81874,-16.06157 -1.51722,-1.53322 h -7.54124 -7.54124 l -1.52902,1.51307 -1.52903,1.51307 v 6.29893 6.29894 l 0.79375,-0.41047 c 0.43657,-0.22575 0.79375,-0.52647 0.79375,-0.66825 0,-0.14179 0.11907,-0.25779 0.26459,-0.25779 0.14552,0 0.51067,-0.24609 0.81145,-0.54687 0.43472,-0.43472 0.62463,-0.48234 0.92604,-0.23219 0.29421,0.24417 0.37917,0.24179 0.37917,-0.0106 0,-0.18044 0.17673,-0.25748 0.39688,-0.17299 0.26914,0.10327 0.39687,-0.0137 0.39687,-0.36353 0,-0.34316 -0.24355,-0.57543 -0.7276,-0.69389 -0.95876,-0.23465 -1.1156,-0.51669 -1.12043,-2.01483 -0.003,-0.89305 0.10143,-1.25677 0.36043,-1.25677 0.61377,0 1.02769,-0.69913 0.73629,-1.24362 -0.18323,-0.34237 -0.14994,-0.63265 0.11393,-0.99352 0.4979,-0.68092 0.47001,-1.20531 -0.0857,-1.61167 -0.50837,-0.37173 -0.51028,-2.09646 -0.003,-2.71239 0.45292,-0.54993 1.37873,-0.27808 1.38346,0.40623 0.002,0.32555 0.0934,0.59344 0.20252,0.59531 0.10914,0.002 0.33024,0.003 0.49133,0.003 0.16109,0 0.2277,-0.16989 0.14802,-0.37753 -0.16165,-0.42123 0.46646,-1.06992 0.82275,-0.84971 0.25314,0.15644 2.29327,-0.38941 2.59933,-0.69547 0.26943,-0.26943 1.36686,-0.24344 1.53985,0.0365 0.17834,0.28857 1.61801,0.65452 2.66695,0.67792 0.62305,0.0139 0.8125,0.15008 0.88095,0.63325 0.0598,0.42183 0.21228,0.56754 0.48466,0.46302 0.2186,-0.0839 0.51381,-0.15252 0.65602,-0.15252 0.1422,0 0.18377,-0.121 0.0924,-0.2689 -0.0914,-0.14789 -0.30679,-0.19104 -0.47864,-0.0959 -0.17184,0.0952 -0.0688,-0.0837 0.22906,-0.39755 0.4697,-0.49491 0.65039,-0.53262 1.36256,-0.28435 0.95732,0.33372 1.17691,0.91431 0.6961,1.84043 -0.18887,0.3638 -0.34516,0.56513 -0.34731,0.44741 -0.002,-0.11773 -0.13567,-0.13262 -0.29673,-0.0331 -0.20458,0.12644 -0.18465,0.25597 0.0662,0.42982 0.25009,0.17337 0.1784,0.19805 -0.23634,0.0814 -0.52437,-0.14749 -0.59531,-0.0707 -0.59531,0.64413 0,0.44637 0.11906,0.81158 0.26458,0.81158 0.14552,0 0.26621,0.32742 0.2682,0.7276 0.005,1.05279 0.28381,1.93535 0.5575,1.7662 0.40449,-0.24999 0.53226,0.54549 0.30483,1.89775 -0.1713,1.01848 -0.32565,1.29723 -0.7188,1.29811 -0.7327,0.002 -0.78551,0.52524 -0.0885,0.87702 0.33153,0.16731 0.42418,0.29195 0.2059,0.27699 -1.76314,-0.12085 -1.58902,0.47519 0.20931,0.71651 1.0102,0.13556 1.32098,0.30827 1.64277,0.91291 0.21828,0.41015 0.75407,1.38016 1.19063,2.15559 l 0.79375,1.40986 0.0703,-7.66105 0.0703,-7.66106 z m 48.60475,15.3845 c 0,-0.41053 0.18578,-0.51355 0.92605,-0.51355 0.50932,0 0.92604,0.11906 0.92604,0.26458 0,0.15287 0.83785,0.26458 1.98437,0.26458 1.14653,0 1.98438,-0.11171 1.98438,-0.26458 0,-0.15268 -0.83264,-0.26458 -1.96876,-0.26458 -1.08282,0 -2.04235,-0.11907 -2.13228,-0.26459 -0.0899,-0.14552 -0.63275,-0.26458 -1.20624,-0.26458 -0.86633,0 -1.04272,-0.0895 -1.04272,-0.52917 0,-0.45077 0.17639,-0.52916 1.19062,-0.52916 0.65485,0 1.19063,0.11906 1.19063,0.26458 0,0.15287 0.83785,0.26458 1.98437,0.26458 1.14653,0 1.98438,-0.11171 1.98438,-0.26458 0,-0.15268 -0.83264,-0.26458 -1.96876,-0.26458 -1.08282,0 -2.04235,-0.11907 -2.13228,-0.26459 -0.0899,-0.14552 -0.49457,-0.26458 -0.89919,-0.26458 -0.53158,0 -0.82085,-0.18696 -1.04272,-0.67391 -0.40996,-0.89978 -0.38761,-1.44276 0.0594,-1.44276 0.49968,0 1.22106,-1.15797 1.22106,-1.96006 0,-0.37771 -0.24934,-0.83041 -0.58804,-1.06764 -0.45527,-0.31889 -0.49012,-0.41188 -0.15434,-0.41188 0.23853,0 0.48827,-0.14883 0.55497,-0.33073 0.097,-0.26458 0.19138,-0.26458 0.47184,0 0.19281,0.1819 0.79308,0.33073 1.33394,0.33073 0.54085,0 1.05282,-0.14883 1.13771,-0.33073 0.12347,-0.26458 0.1852,-0.26458 0.30867,0 0.0849,0.1819 0.59686,0.33073 1.13771,0.33073 0.54086,0 1.14113,-0.14883 1.33394,-0.33073 0.28046,-0.26458 0.37483,-0.26458 0.47184,0 0.0667,0.1819 0.52807,0.33073 1.02526,0.33073 h 0.904 v 1.69774 c 0,1.0702 -0.11551,1.73625 -0.3125,1.80191 -0.17188,0.0573 -0.44963,0.5137 -0.61724,1.01424 -0.25062,0.74847 -0.45352,0.92479 -1.1427,0.99298 -1.20782,0.1195 -1.03298,0.57855 0.22036,0.57855 0.88194,0 1.05833,0.0882 1.05833,0.52916 0,0.44098 -0.17639,0.52917 -1.05833,0.52917 -0.58209,0 -1.05834,0.11906 -1.05834,0.26458 0,0.14552 0.34917,0.26459 0.77592,0.26459 0.55873,0 0.82587,0.15735 0.95434,0.56215 0.15922,0.50166 0.4601,0.28154 2.79596,-2.04556 l 2.61753,-2.60771 v -1.73137 -1.73138 l -1.98437,-1.97113 -1.98438,-1.97113 v 1.32952 c 0,0.73124 -0.14287,1.4724 -0.3175,1.64702 -0.45361,0.45361 -1.44929,0.39223 -1.63857,-0.10101 -0.22889,-0.59649 -0.16413,-3.31875 0.0939,-3.94711 0.17165,-0.41801 -0.0106,-0.76538 -0.86743,-1.65365 -1.06075,-1.09961 -1.12332,-1.12448 -2.82982,-1.12448 -1.64723,0 -1.79546,0.052 -2.64315,0.92656 -0.69768,0.71982 -0.82733,0.99728 -0.58107,1.24354 0.42371,0.42371 0.42329,4.23235 -5.3e-4,4.65615 -0.17462,0.17463 -0.54031,0.3175 -0.81265,0.3175 -0.86258,0 -1.25109,-0.67003 -1.25109,-2.1577 v -1.40176 l -2.11666,2.10425 -2.11667,2.10426 v 1.72148 1.72148 l 2.69347,2.70267 c 1.48141,1.48647 2.7911,2.64233 2.91042,2.56859 0.11932,-0.0737 0.21694,-0.36518 0.21694,-0.64763 z m -2.33048,-5.87397 c -1.64081,-0.92699 -2.02404,-1.49244 -1.617,-2.3858 0.37936,-0.83261 1.32294,-0.77581 2.94974,0.17756 1.3369,0.78347 1.71238,1.43606 1.28537,2.23395 -0.43666,0.81589 -1.14071,0.80897 -2.61811,-0.0257 z m 3.98163,-3.10266 c -0.39827,-0.63774 -0.45385,-5.03067 -0.0636,-5.03067 0.14553,0 0.26459,-0.1786 0.26459,-0.39688 0,-0.55049 1.05125,-0.50363 1.48377,0.0661 0.22837,0.30084 0.35148,1.25074 0.35148,2.71198 0,2.38472 -0.30004,3.175 -1.20546,3.175 -0.27638,0 -0.6502,-0.23651 -0.83073,-0.52558 z m 2.89969,-0.0565 c -0.4431,-0.4431 -0.40337,-4.17742 0.0508,-4.77573 0.43252,-0.56977 1.48377,-0.61663 1.48377,-0.0661 0,0.21828 0.11906,0.39687 0.26459,0.39687 0.43313,0 0.33124,3.93989 -0.1134,4.38453 -0.46098,0.46098 -1.25672,0.48953 -1.68577,0.0605 z m -63.8175,7.60916 c 0,-0.35521 0.11906,-0.71943 0.26458,-0.80937 0.14552,-0.0899 0.26458,-0.38659 0.26458,-0.65924 0,-0.56971 0.81287,-0.90953 1.5875,-0.66367 0.29104,0.0924 0.52917,0.39102 0.52917,0.66367 0,0.27265 0.11906,0.56931 0.26458,0.65924 0.14552,0.0899 0.26459,0.45416 0.26459,0.80937 0,0.78829 0.68651,0.87137 0.92745,0.11224 0.0931,-0.29348 0.64474,-0.77613 1.22576,-1.07254 1.56945,-0.80068 1.1989,-1.38252 -0.56571,-0.88832 -0.59885,0.16772 -0.56329,0.0825 0.37568,-0.90015 0.88813,-0.92945 0.97125,-1.11069 0.5785,-1.26141 -0.27223,-0.10446 -1.01792,0.10697 -1.83469,0.52022 -0.75683,0.38292 -1.46364,0.69622 -1.57069,0.69622 -0.10705,0 -0.19464,-0.35719 -0.19464,-0.79375 0,-0.61736 -0.11759,-0.79375 -0.52916,-0.79375 -0.41158,0 -0.52917,0.17639 -0.52917,0.79375 0,0.43656 -0.0876,0.79375 -0.19464,0.79375 -0.10705,0 -0.81386,-0.3133 -1.57069,-0.69622 -0.81677,-0.41325 -1.56246,-0.62468 -1.83469,-0.52022 -0.39275,0.15072 -0.30963,0.33196 0.5785,1.26141 0.93897,0.98266 0.97453,1.06787 0.37569,0.90015 -1.76462,-0.4942 -2.13517,0.0876 -0.56572,0.88832 0.58102,0.29641 1.13262,0.77906 1.22577,1.07254 0.24094,0.75913 0.92745,0.67605 0.92745,-0.11224 z"
       style="fill:#000000;fill-opacity:1;stroke:none;stroke-width:0.265;stroke-opacity:1;stroke-miterlimit:4;stroke-dasharray:none" />
  </g>
</svg>
